<svg width="24" height="24" viewBox="0 0 24 24" fill="none" xmlns="http://www.w3.org/2000/svg">
<path d="M10.2929 8.70711C10.6834 9.09763 11.3166 9.09763 11.7071 8.70711C12.0976 8.31658 12.0976 7.68342 11.7071 7.29289L7.70711 3.29289C7.31658 2.90237 6.68342 2.90237 6.29289 3.29289L2.29289 7.29289C1.90237 7.68342 1.90237 8.31658 2.29289 8.70711C2.68342 9.09763 3.31658 9.09763 3.70711 8.70711L7 5.41421L10.2929 8.70711Z" fill="currentColor"/>
<path d="M8 19.9375L8 5.0625C8 4.4757 7.55229 4 7 4C6.44772 4 6 4.4757 6 5.0625L6 19.9375C6 20.5243 6.44772 21 7 21C7.55228 21 8 20.5243 8 19.9375Z" fill="currentColor"/>
<path fill-rule="evenodd" clip-rule="evenodd" d="M14 15C13.4477 15 13 14.5523 13 14C13 13.4477 13.4477 13 14 13H20C20.4045 13 20.7691 13.2436 20.9239 13.6173C21.0787 13.991 20.9931 14.4211 20.7071 14.7071L16.4142 19H20C20.5523 19 21 19.4477 21 20C21 20.5523 20.5523 21 20 21H14C13.5955 21 13.2309 20.7564 13.0761 20.3827C12.9213 20.009 13.0069 19.5789 13.2929 19.2929L17.5858 15H14Z" fill="currentColor"/>
<path fill-rule="evenodd" clip-rule="evenodd" d="M17 5.6926L19.0715 10.8714C19.2766 11.3842 19.8586 11.6336 20.3714 11.4285C20.8842 11.2234 21.1336 10.6414 20.9285 10.1286L18.3927 3.78923C17.8898 2.53201 16.1102 2.53201 15.6073 3.78923L13.0715 10.1286C12.8664 10.6414 13.1158 11.2234 13.6286 11.4285C14.1414 11.6336 14.7234 11.3842 14.9285 10.8714L17 5.6926Z" fill="currentColor"/>
<path fill-rule="evenodd" clip-rule="evenodd" d="M19.5 10H14.5V8H19.5V10Z" fill="currentColor"/>
</svg>
