<svg width="24" height="24" viewBox="0 0 24 24" fill="none" xmlns="http://www.w3.org/2000/svg">
<path d="M11.2929 8.70711C11.6834 9.09763 12.3166 9.09763 12.7071 8.70711C13.0976 8.31658 13.0976 7.68342 12.7071 7.29289L8.70711 3.29289C8.31658 2.90237 7.68342 2.90237 7.29289 3.29289L3.29289 7.29289C2.90237 7.68342 2.90237 8.31658 3.29289 8.70711C3.68342 9.09763 4.31658 9.09763 4.70711 8.70711L8 5.41421L11.2929 8.70711Z" fill="currentColor"/>
<path d="M9 19.9375L9 5.0625C9 4.4757 8.55229 4 8 4C7.44772 4 7 4.4757 7 5.0625L7 19.9375C7 20.5243 7.44772 21 8 21C8.55228 21 9 20.5243 9 19.9375Z" fill="currentColor"/>
<path fill-rule="evenodd" clip-rule="evenodd" d="M16 13C16.5523 13 17 13.4477 17 14V19H21C21.5523 19 22 19.4477 22 20C22 20.5523 21.5523 21 21 21H16C15.4477 21 15 20.5523 15 20V14C15 13.4477 15.4477 13 16 13Z" fill="currentColor"/>
<path d="M21 9.39567C21 8.52756 20.4167 7.62402 19.0287 6.9685C18.4253 6.68504 17.5201 6.33071 16.9971 6.10039C16.5345 5.90551 16.3333 5.58661 16.3333 5.32086C16.3333 4.9311 16.7155 4.59449 17.3994 4.59449C18.1034 4.59449 18.4655 4.84252 18.6667 5.01968C18.9282 5.26772 19.2299 5.37401 19.4914 5.37401C20.0345 5.37401 20.4971 4.96654 20.4971 4.48819C20.4971 3.79724 19.25 3 17.3994 3C15.4684 3 14.342 4.16929 14.342 5.37401C14.342 6.24213 14.9052 7.11024 16.1523 7.58858C18.5057 8.52756 18.9483 8.86417 18.9483 9.4311C18.9483 9.83858 18.5259 10.3346 17.4598 10.3346C16.6351 10.3346 16.1121 10.0335 15.8305 9.71457C15.6092 9.44882 15.3075 9.34252 15.0259 9.34252C14.5029 9.34252 14 9.71457 14 10.1929C14 10.7776 15.0259 12 17.4799 12C19.4914 12 21 10.7776 21 9.39567Z" fill="currentColor"/>
</svg>
