<svg width="16" height="16" viewBox="0 0 16 16" fill="currentColor" xmlns="http://www.w3.org/2000/svg">
<path fill-rule="evenodd" clip-rule="evenodd" d="M10.8335 3.00016C10.8335 2.63197 11.132 2.3335 11.5002 2.3335H14.0002C14.3684 2.3335 14.6668 2.63197 14.6668 3.00016V5.50016C14.6668 5.86835 14.3684 6.16683 14.0002 6.16683C13.632 6.16683 13.3335 5.86835 13.3335 5.50016V3.66683H11.5002C11.132 3.66683 10.8335 3.36835 10.8335 3.00016Z" fill="#C7C5C5"/>
<path fill-rule="evenodd" clip-rule="evenodd" d="M2.00016 9.8335C2.36835 9.8335 2.66683 10.132 2.66683 10.5002V12.3335H4.50016C4.86835 12.3335 5.16683 12.632 5.16683 13.0002C5.16683 13.3684 4.86835 13.6668 4.50016 13.6668H2.00016C1.63197 13.6668 1.3335 13.3684 1.3335 13.0002V10.5002C1.3335 10.132 1.63197 9.8335 2.00016 9.8335Z" fill="#C7C5C5"/>
<path fill-rule="evenodd" clip-rule="evenodd" d="M14.0002 9.8335C14.3684 9.8335 14.6668 10.132 14.6668 10.5002V13.0002C14.6668 13.3684 14.3684 13.6668 14.0002 13.6668H11.5002C11.132 13.6668 10.8335 13.3684 10.8335 13.0002C10.8335 12.632 11.132 12.3335 11.5002 12.3335H13.3335V10.5002C13.3335 10.132 13.632 9.8335 14.0002 9.8335Z" fill="#C7C5C5"/>
<path fill-rule="evenodd" clip-rule="evenodd" d="M1.3335 3.00016C1.3335 2.63197 1.63197 2.3335 2.00016 2.3335H4.50016C4.86835 2.3335 5.16683 2.63197 5.16683 3.00016C5.16683 3.36835 4.86835 3.66683 4.50016 3.66683H2.66683V5.50016C2.66683 5.86835 2.36835 6.16683 2.00016 6.16683C1.63197 6.16683 1.3335 5.86835 1.3335 5.50016V3.00016Z" fill="#C7C5C5"/>
<path fill-rule="evenodd" clip-rule="evenodd" d="M8.00016 4.8335C8.36835 4.8335 8.66683 5.13197 8.66683 5.50016V10.5002C8.66683 10.8684 8.36835 11.1668 8.00016 11.1668C7.63197 11.1668 7.3335 10.8684 7.3335 10.5002V5.50016C7.3335 5.13197 7.63197 4.8335 8.00016 4.8335Z" fill="#C7C5C5"/>
<path fill-rule="evenodd" clip-rule="evenodd" d="M4.8335 7.99984C4.8335 7.63165 5.13197 7.33317 5.50016 7.33317L10.5002 7.33317C10.8684 7.33317 11.1668 7.63165 11.1668 7.99984C11.1668 8.36803 10.8684 8.6665 10.5002 8.6665L5.50016 8.6665C5.13197 8.6665 4.8335 8.36803 4.8335 7.99984Z" fill="#C7C5C5"/>
</svg>
